<?xml version="1.0" standalone="no"?>
<!DOCTYPE svg PUBLIC "-//W3C//DTD SVG 20010904//EN"
 "http://www.w3.org/TR/2001/REC-SVG-20010904/DTD/svg10.dtd">
<svg version="1.0" xmlns="http://www.w3.org/2000/svg"
 width="1280.000000pt" height="827.000000pt" viewBox="0 0 1280.000000 827.000000"
 preserveAspectRatio="xMidYMid meet">
<metadata>
Created by potrace 1.15, written by Peter Selinger 2001-2017
</metadata>
<g transform="translate(0.000000,827.000000) scale(0.100000,-0.100000)"
fill="#000000" stroke="none">
<path d="M7850 8264 c-483 -42 -756 -94 -1285 -245 -703 -201 -1010 -319
-1154 -443 -36 -31 -132 -102 -215 -158 -83 -57 -207 -148 -276 -203 -69 -55
-163 -130 -210 -167 -47 -36 -125 -102 -175 -147 -49 -45 -162 -145 -250 -223
-88 -78 -218 -196 -290 -263 -178 -166 -447 -412 -502 -460 -48 -41 -278 -165
-629 -339 -116 -58 -247 -126 -290 -151 -44 -26 -169 -97 -279 -158 -110 -60
-254 -143 -319 -184 -66 -41 -184 -110 -262 -153 -79 -44 -184 -108 -234 -144
-50 -36 -178 -118 -286 -183 -216 -130 -324 -218 -480 -389 -112 -124 -145
-171 -283 -417 -61 -108 -121 -214 -134 -234 -13 -21 -44 -81 -69 -133 -25
-52 -67 -120 -92 -150 -55 -64 -126 -203 -133 -260 -4 -30 1 -53 25 -103 17
-35 36 -85 43 -113 6 -27 17 -54 23 -61 6 -6 125 -71 265 -144 250 -130 257
-135 370 -238 64 -58 144 -134 178 -168 l63 -62 0 -88 c0 -169 22 -198 223
-308 422 -230 476 -254 762 -336 77 -22 201 -60 275 -84 172 -55 275 -73 326
-57 39 12 118 -5 714 -148 241 -58 359 -80 870 -159 368 -58 440 -63 825 -59
390 5 419 9 715 93 264 75 235 72 249 22 44 -147 137 -219 426 -327 312 -117
615 -160 765 -110 165 55 333 201 482 417 104 151 145 226 215 396 58 144 60
150 137 482 35 154 70 298 78 320 12 36 28 50 154 135 267 180 357 242 488
339 72 54 282 203 465 331 184 128 436 306 560 395 125 89 404 282 621 428
l394 267 31 -30 c78 -76 212 -108 482 -117 346 -11 416 22 586 275 89 133 118
194 185 402 72 223 102 420 102 685 l0 130 88 135 c48 75 105 160 126 190 22
30 70 122 108 204 37 82 79 163 93 182 14 18 25 38 25 45 0 7 15 29 34 49 19
19 67 91 106 160 39 69 83 137 96 151 44 46 29 81 -115 273 -87 117 -125 176
-123 191 2 13 -3 25 -11 28 -8 3 -54 65 -103 137 -104 156 -147 202 -240 253
-105 58 -317 151 -434 190 -274 91 -772 201 -1035 227 -60 6 -192 31 -292 56
-611 149 -1246 258 -1808 309 -161 15 -668 27 -765 19z m806 -83 c337 -35 536
-63 929 -132 530 -92 722 -140 1034 -258 l105 -39 -33 -20 c-18 -11 -63 -25
-100 -32 -272 -47 -523 -119 -801 -227 -212 -84 -553 -263 -733 -385 -82 -57
-144 -115 -133 -125 6 -6 35 11 261 158 287 186 489 279 890 409 273 88 490
139 659 156 73 7 86 1 86 -41 0 -18 -7 -20 -66 -22 -125 -4 -552 -129 -867
-254 -145 -58 -516 -247 -627 -321 -178 -117 -302 -258 -389 -442 -133 -281
-458 -1211 -566 -1621 -15 -55 -35 -119 -45 -142 -19 -42 -20 -43 -69 -43
l-51 0 0 34 c0 77 59 270 274 900 147 429 313 850 412 1048 35 70 64 138 64
150 0 21 -11 26 -108 51 -59 15 -147 38 -197 51 -49 13 -169 42 -265 64 -96
23 -242 57 -325 76 -341 82 -1377 273 -1905 351 -361 54 -482 76 -487 90 -5
16 228 113 427 177 312 101 368 118 563 174 446 127 826 203 1177 233 170 15
667 5 886 -18z m2199 -378 c186 -28 599 -125 768 -180 93 -30 219 -76 280
-103 62 -27 124 -52 140 -55 15 -4 27 -13 27 -19 0 -8 -38 -17 -112 -25 -174
-20 -466 -84 -642 -140 -87 -28 -167 -51 -177 -51 -12 0 -54 54 -128 164 -112
167 -135 211 -145 280 -7 52 -28 73 -113 112 -40 18 -73 35 -73 38 0 5 27 2
175 -21z m-76 -251 c21 -49 30 -133 41 -369 17 -347 -9 -727 -67 -965 -30
-124 -44 -144 -156 -219 -92 -61 -94 -59 -101 74 -16 270 -39 438 -92 657 -24
102 -48 212 -53 245 -5 33 -34 133 -65 223 -76 223 -76 226 -35 252 67 41 386
128 475 129 36 1 43 -3 53 -27z m185 -161 l116 -180 0 -173 c-1 -449 -53 -908
-110 -981 -11 -13 -69 -63 -130 -110 l-111 -87 -37 16 c-20 9 -54 21 -74 27
-21 6 -38 15 -38 20 0 5 15 21 33 35 84 70 144 139 161 187 9 28 30 133 47
235 46 276 49 574 12 1098 -4 58 0 92 11 92 2 0 56 -81 120 -179z m-5029 129
c393 -57 879 -141 1225 -210 543 -109 1680 -368 1680 -383 0 -5 -51 -124 -114
-265 -63 -141 -130 -300 -149 -352 -76 -205 -281 -814 -328 -975 -106 -359
-129 -434 -148 -479 -20 -45 -22 -46 -63 -46 -141 1 -901 138 -1250 226 -149
37 -260 75 -241 81 18 6 265 -40 543 -103 346 -78 470 -102 643 -124 149 -19
322 -28 333 -18 3 3 19 59 35 124 127 499 452 1447 609 1773 33 68 60 126 60
130 0 36 -1087 286 -1671 385 -145 25 -437 77 -649 116 -384 72 -718 129 -860
149 l-75 10 105 -5 c58 -2 200 -18 315 -34z m-516 -123 c-58 -56 -191 -183
-294 -282 -185 -177 -314 -315 -362 -387 -17 -25 -23 -47 -21 -70 3 -32 4 -31
63 59 33 51 63 93 68 93 15 0 6 -25 -39 -107 -48 -89 -69 -143 -54 -143 15 0
54 59 125 190 134 247 148 264 443 535 105 97 196 184 200 192 7 12 20 13 83
4 705 -99 863 -121 866 -125 6 -5 -63 -142 -146 -291 -33 -60 -61 -115 -61
-122 0 -9 15 -13 45 -13 55 0 56 -9 16 -85 -17 -32 -32 -80 -36 -113 -7 -56
-56 -162 -76 -162 -5 0 -9 39 -9 86 0 105 -14 157 -52 189 -15 13 -28 34 -28
45 0 12 48 101 106 197 103 170 134 229 134 254 0 20 -50 -32 -90 -93 -21 -32
-68 -116 -105 -188 -84 -164 -118 -191 -315 -255 -242 -79 -875 -322 -992
-381 l-70 -35 -39 26 c-42 27 -59 58 -59 104 0 20 -6 30 -19 34 -12 3 -21 17
-25 40 -7 39 -52 101 -66 92 -11 -7 1 -48 29 -102 11 -23 21 -49 21 -58 0 -22
-105 -203 -138 -237 -41 -44 -86 -33 -61 14 7 13 33 50 59 83 81 103 118 174
64 124 -63 -58 -289 -377 -396 -559 -59 -100 -76 -140 -60 -140 17 0 66 69
142 200 104 179 98 173 201 216 98 41 122 63 153 144 17 45 52 90 68 90 12 0
-1 -49 -25 -93 -27 -49 -14 -64 38 -43 21 9 43 16 51 16 30 0 174 -548 174
-663 l0 -34 -72 3 c-40 2 -125 6 -188 8 -84 3 -138 11 -200 30 -47 13 -173 47
-280 75 -293 75 -480 140 -511 177 -14 17 71 102 371 373 662 598 1392 1192
1464 1191 6 0 -37 -46 -95 -103z m4747 -4 c3 -16 22 -71 41 -123 82 -222 93
-256 93 -307 0 -29 5 -53 10 -53 6 0 10 -17 10 -38 0 -21 7 -47 15 -58 8 -10
15 -37 15 -60 0 -22 5 -45 11 -51 16 -16 77 -576 71 -651 -6 -78 -26 -79 -29
-1 -4 92 -33 346 -59 519 -53 358 -125 655 -177 731 -20 29 -29 34 -60 32 -81
-5 -536 -223 -767 -368 -151 -95 -179 -115 -288 -218 l-53 -49 44 -146 c25
-81 50 -178 56 -217 7 -38 21 -104 32 -145 11 -41 27 -129 34 -195 8 -66 21
-163 29 -215 31 -195 49 -570 27 -570 -5 0 -12 64 -15 143 -16 317 -51 560
-137 947 -70 315 -69 310 -89 310 -13 0 -21 -13 -29 -46 -6 -25 -38 -112 -71
-195 -124 -309 -406 -1124 -460 -1329 -37 -136 -43 -150 -71 -150 -41 0 -19
101 85 400 30 85 87 254 126 375 135 413 283 806 363 960 80 154 194 285 327
375 72 49 489 268 624 328 113 50 230 91 263 92 17 0 24 -7 29 -27z m2045 -18
c64 -43 204 -236 315 -435 31 -56 79 -127 105 -157 27 -31 56 -75 65 -100 21
-53 25 -42 -103 -235 -64 -96 -104 -144 -161 -195 -42 -37 -109 -98 -148 -136
-68 -66 -72 -68 -89 -50 -10 9 -27 38 -38 63 -47 108 -95 139 -216 140 -97 0
-141 -21 -224 -109 -83 -89 -160 -214 -268 -437 -80 -166 -99 -215 -143 -374
-9 -34 -26 -66 -43 -82 -67 -62 -509 -376 -517 -366 -9 10 36 386 49 409 21
38 35 154 27 219 -6 40 -15 62 -35 82 -26 26 -27 31 -27 130 l1 103 51 35
c178 120 204 155 233 309 8 46 24 120 35 166 34 140 42 231 49 535 l6 295 65
23 c171 62 503 147 685 176 50 7 135 14 190 15 91 1 104 -1 136 -24z m-7022
-38 c-187 -130 -1269 -1086 -1518 -1340 -61 -63 -61 -76 -4 -105 89 -45 462
-155 873 -256 346 -85 454 -125 383 -140 -21 -5 -66 4 -144 28 -63 19 -242 66
-399 106 -301 75 -479 125 -595 166 -82 29 -235 104 -235 115 0 18 374 373
522 494 33 28 99 85 147 128 47 42 158 143 247 222 88 80 212 187 276 238 63
50 188 152 278 225 89 73 165 130 168 127 3 -3 3 -6 1 -8z m1416 -2 c39 -7
189 -34 335 -59 302 -52 1028 -195 1140 -226 131 -35 421 -107 528 -131 l103
-22 -7 -31 c-3 -17 -7 -32 -9 -34 -2 -2 -542 103 -938 183 -38 7 -77 21 -86
29 -10 9 -21 16 -25 16 -13 0 -28 -57 -61 -232 -19 -97 -40 -189 -48 -204
l-15 -28 -20 34 c-12 18 -26 56 -32 84 -65 283 -100 378 -162 432 -29 25 -59
37 -145 58 -173 41 -389 76 -508 82 -60 3 -115 7 -121 9 -9 3 -9 55 0 55 0 0
33 -7 71 -15z m3578 -201 c121 -394 186 -767 187 -1060 l0 -112 -56 -51 c-61
-56 -223 -174 -414 -301 -69 -46 -190 -131 -270 -190 -176 -129 -251 -180
-307 -209 l-43 -21 0 59 c0 57 2 61 38 89 62 49 164 113 514 318 348 206 502
305 512 330 10 27 -22 26 -70 -2 l-47 -27 -106 21 c-58 12 -134 25 -169 29
-73 7 -94 23 -90 67 3 29 5 31 50 34 25 2 84 -6 130 -17 120 -29 268 -54 275
-48 21 22 -21 35 -230 71 l-225 39 -4 68 -3 69 30 0 c28 0 81 -9 288 -47 80
-14 90 -14 104 -1 18 19 33 15 -227 58 -102 17 -190 36 -197 43 -16 17 -34
120 -22 131 9 10 55 5 281 -34 74 -13 139 -19 155 -15 l28 7 -25 12 c-32 17
-117 32 -250 46 -131 14 -186 32 -205 70 -8 16 -15 37 -15 48 0 10 -5 23 -11
29 -17 17 -3 43 21 43 12 0 101 -15 198 -34 232 -45 262 -50 262 -38 0 13 -36
27 -130 51 -105 25 -241 49 -334 58 -50 4 -82 13 -107 30 -28 19 -85 33 -240
61 -134 25 -204 42 -204 50 0 15 273 182 299 182 11 0 27 -6 35 -13 9 -8 140
-35 291 -61 151 -26 285 -50 298 -53 17 -4 22 -1 22 16 0 12 -6 24 -12 26 -7
3 -141 25 -297 50 -265 42 -301 49 -290 58 20 17 101 68 102 65 23 -43 21 -42
243 -80 120 -21 220 -35 222 -33 8 8 -21 37 -46 46 -13 5 -58 13 -100 18 -120
15 -282 44 -282 51 0 3 18 16 40 29 32 18 40 19 40 7 0 -22 6 -24 171 -57 122
-24 154 -28 160 -17 18 28 26 25 -166 59 -71 12 -134 26 -139 30 -13 11 127
78 208 99 39 10 74 15 77 12 3 -4 27 -75 52 -158z m-3500 126 c38 -6 164 -30
280 -54 117 -25 228 -47 248 -51 54 -8 84 -37 122 -119 66 -137 139 -419 177
-681 22 -156 28 -445 9 -445 -6 0 -47 9 -92 21 -89 23 -168 28 -234 16 l-43
-7 0 418 0 418 -27 27 c-24 23 -62 33 -292 82 l-263 57 -47 -46 c-32 -32 -55
-46 -74 -46 -15 0 -27 3 -27 6 0 4 14 66 31 138 23 99 40 149 71 204 47 81 42
79 161 62z m-238 -179 c-19 -80 -43 -118 -70 -108 -13 6 -16 14 -10 35 7 29
85 155 92 149 2 -3 -3 -36 -12 -76z m1480 -136 c412 -83 590 -118 654 -129 39
-7 68 -18 75 -28 12 -20 -3 -69 -60 -198 -33 -74 -105 -271 -229 -620 -18 -52
-52 -154 -75 -227 -31 -97 -47 -134 -61 -138 -10 -3 -48 -43 -85 -88 -99 -121
-89 -113 -109 -84 -15 23 -15 28 -1 55 8 16 25 65 36 108 47 178 119 332 210
449 93 121 170 234 170 251 0 19 -48 31 -495 125 -214 44 -394 85 -398 89 -10
9 12 118 24 126 5 3 207 -38 449 -91 243 -52 448 -95 457 -95 12 0 13 3 3 15
-20 25 -117 55 -244 76 -66 11 -188 35 -271 54 -82 18 -190 41 -240 50 -49 9
-100 18 -112 21 -19 4 -23 11 -23 44 0 51 15 90 36 90 8 0 214 -41 456 -91
357 -74 442 -89 449 -78 12 20 3 24 -86 42 -215 43 -782 159 -797 163 -14 4
-18 17 -18 59 0 71 17 109 44 100 12 -3 120 -26 241 -50z m-1279 -56 c50 -13
54 -26 20 -66 -21 -25 -30 -28 -75 -26 -29 1 -56 5 -62 9 -13 8 -2 53 18 77
19 20 38 21 99 6z m204 -53 c52 -13 121 -27 153 -31 82 -10 99 -28 105 -104
l4 -61 -40 0 c-32 0 -52 9 -99 44 -72 54 -88 62 -166 86 -34 11 -71 26 -82 34
-19 14 -19 15 -1 35 11 12 22 21 25 21 4 0 49 -11 101 -24z m-696 -8 c21 -33
43 -122 51 -211 4 -42 11 -77 16 -77 5 0 9 -7 9 -15 0 -17 -30 -35 -58 -35
-11 0 -101 -31 -199 -69 -98 -38 -197 -75 -220 -82 -24 -6 -45 -19 -48 -28 -2
-9 -25 -119 -50 -245 -49 -248 -73 -339 -113 -430 -26 -58 -26 -58 -61 -52
-32 6 -209 24 -403 43 -50 4 -69 10 -72 22 -7 23 -45 192 -48 215 -6 40 20 25
41 -24 15 -36 27 -50 41 -50 31 0 25 36 -16 93 -42 58 -73 123 -74 151 0 10
-11 29 -24 41 -13 12 -26 39 -30 61 -3 21 -18 83 -33 136 -14 54 -25 99 -22
101 25 16 948 374 1119 433 143 50 173 54 194 22z m326 -33 c53 -48 115 -59
171 -30 28 15 35 14 122 -16 111 -38 135 -50 165 -82 21 -22 23 -32 20 -103
l-3 -79 -40 -3 c-61 -5 -216 26 -354 71 -105 34 -130 46 -167 82 -42 39 -44
45 -44 98 0 48 4 58 26 76 31 25 66 20 104 -14z m2837 9 c226 -33 383 -87 414
-141 21 -35 43 -128 65 -263 18 -119 30 -485 19 -614 l-7 -85 -155 -96 c-85
-53 -156 -95 -158 -93 -1 2 6 116 16 253 22 296 18 563 -10 595 -18 21 -234
70 -309 70 -45 0 -46 -1 -24 -15 25 -18 153 -51 233 -60 67 -7 77 -22 86 -121
9 -102 -5 -108 -172 -74 -54 11 -101 18 -104 14 -11 -11 32 -33 85 -44 30 -5
79 -15 109 -21 30 -6 62 -17 70 -25 15 -16 21 -106 9 -138 -8 -21 -67 -21
-153 -1 -46 11 -68 12 -75 5 -16 -16 6 -26 83 -40 36 -7 81 -19 99 -26 l32
-13 0 -80 c0 -44 -3 -82 -8 -85 -13 -8 -196 34 -210 48 -9 8 -19 64 -28 142
-7 71 -21 163 -30 204 -16 73 -127 534 -139 576 -5 17 7 33 65 82 39 34 75 62
80 62 5 0 58 -7 117 -16z m-2892 -227 c55 -23 105 -45 111 -49 23 -15 -15
-182 -101 -446 -30 -92 -60 -192 -68 -222 l-13 -55 -55 0 c-30 0 -95 7 -145
14 -88 14 -92 14 -136 -7 -25 -12 -78 -47 -118 -77 -41 -31 -79 -54 -84 -52
-6 3 -10 15 -8 28 7 63 215 444 372 679 53 80 107 164 120 188 13 23 24 42 24
42 1 0 46 -19 101 -43z m647 23 l36 -10 4 -70 3 -70 -27 0 c-37 0 -77 17 -84
35 -10 24 6 125 19 125 7 0 29 -5 49 -10z m-382 -120 c41 -11 131 -25 200 -30
158 -14 167 -16 196 -45 21 -21 24 -34 24 -91 0 -58 -2 -66 -17 -62 -10 3
-132 29 -270 58 l-253 54 0 36 c0 46 18 100 33 100 7 0 46 -9 87 -20z m2315
-44 l17 -64 -26 -35 c-28 -37 -75 -158 -96 -247 -7 -30 -35 -107 -63 -170 -27
-63 -69 -173 -94 -245 -24 -71 -60 -165 -78 -210 -19 -44 -36 -91 -39 -105 -3
-14 -19 -47 -37 -73 -17 -26 -39 -69 -50 -97 l-19 -49 25 -29 c19 -23 42 -34
95 -47 39 -9 72 -21 75 -25 8 -13 -74 -79 -137 -111 -63 -32 -148 -41 -148
-15 0 23 76 282 140 481 155 474 391 1105 413 1105 3 0 13 -29 22 -64z m-1030
-62 c226 -47 412 -88 413 -89 2 -2 -16 -31 -39 -64 -26 -38 -48 -59 -57 -56
-7 2 -126 29 -265 60 -397 86 -431 95 -465 115 -29 18 -32 24 -32 68 0 51 5
63 23 57 7 -2 197 -43 422 -91z m-1847 -10 c-59 -84 -83 -99 -276 -170 -119
-44 -142 -44 -142 -4 0 43 28 106 53 118 31 16 368 139 392 144 11 2 21 0 23
-4 2 -4 -20 -42 -50 -84z m570 -58 c75 -19 184 -44 242 -56 58 -12 120 -28
138 -37 33 -16 33 -16 30 -82 l-3 -66 -43 -3 c-27 -2 -91 10 -175 34 -73 20
-185 49 -251 65 -65 15 -121 30 -124 34 -6 6 36 145 44 145 3 0 67 -15 142
-34z m2360 -96 c50 -185 84 -411 65 -423 -11 -7 -143 16 -217 37 -46 14 -56
21 -56 38 0 28 35 101 60 123 18 17 23 17 90 0 39 -10 73 -15 76 -12 14 13
-39 46 -91 57 -51 11 -56 14 -51 33 3 12 11 46 17 75 12 50 13 52 46 52 26 0
33 4 33 20 0 13 -7 20 -18 20 -30 0 -32 10 -9 56 11 24 22 43 23 41 1 -1 16
-54 32 -117z m-1404 65 c249 -60 491 -116 545 -124 35 -6 65 -12 67 -14 2 -2
-8 -28 -24 -58 l-27 -54 -65 1 c-46 0 -121 15 -258 53 -106 29 -219 55 -250
58 -31 3 -63 10 -69 16 -8 5 -13 33 -13 67 0 53 5 65 29 69 3 1 32 -6 65 -14z
m4329 -46 c54 -15 99 -58 136 -132 l32 -63 -31 -163 c-16 -90 -30 -167 -30
-172 0 -5 -4 -9 -9 -9 -4 0 -22 40 -40 88 -40 111 -86 190 -130 219 -19 13
-66 32 -105 44 -103 30 -109 39 -61 90 45 46 91 76 144 95 45 16 47 16 94 3z
m-5963 -24 c0 -19 -47 -92 -79 -123 -35 -35 -165 -93 -241 -109 l-27 -5 12 67
c7 36 15 68 18 71 7 7 290 104 304 104 7 0 13 -2 13 -5z m660 -90 c47 -15 145
-39 217 -55 168 -37 203 -52 203 -91 0 -41 -53 -99 -91 -99 -30 0 -244 52
-398 96 -46 13 -96 24 -111 24 -52 0 -55 28 -14 149 6 19 84 9 194 -24z m5693
-62 c-56 -132 -224 -406 -239 -390 -5 5 35 209 57 289 8 30 29 53 107 117 63
52 98 75 100 66 2 -8 -10 -44 -25 -82z m-4488 -9 c154 -36 281 -68 283 -69 4
-4 -57 -125 -62 -125 -3 0 -83 16 -178 36 -199 40 -268 59 -320 85 l-38 19 0
66 c0 58 2 65 18 60 9 -3 143 -35 297 -72z m3865 -39 c53 -6 109 -38 140 -78
28 -35 20 -44 -23 -29 -96 35 -170 -12 -290 -179 -126 -177 -222 -462 -258
-761 -6 -56 -9 -185 -7 -310 5 -241 18 -312 77 -432 46 -91 84 -119 159 -114
29 2 51 -1 49 -6 -17 -52 -177 -76 -241 -37 -86 54 -160 239 -187 472 -15 131
-8 188 46 357 43 137 75 270 75 313 0 12 11 41 24 63 13 23 34 74 46 115 63
213 145 396 250 560 43 67 56 80 73 77 12 -3 42 -8 67 -11z m-5860 -28 c0 -33
-67 -123 -108 -145 -44 -25 -152 -46 -152 -30 0 29 25 99 39 113 22 19 167 74
199 75 12 0 22 -6 22 -13z m4116 -17 c76 -11 139 -22 141 -24 7 -7 -41 -57
-69 -72 -34 -18 -128 -12 -185 12 -30 12 -33 17 -33 58 0 26 2 46 4 46 3 0 67
-9 142 -20z m-3298 -59 c133 -32 245 -61 249 -65 8 -7 -35 -102 -54 -117 -17
-14 -134 10 -297 60 -68 21 -142 42 -165 46 -32 5 -41 11 -37 23 2 10 7 33 11
52 11 61 15 68 33 64 9 -2 126 -30 260 -63z m1132 -27 c135 -31 246 -57 247
-58 1 -1 -7 -32 -19 -69 -17 -52 -26 -66 -38 -61 -8 3 -62 15 -120 26 -62 12
-125 30 -154 46 -80 43 -206 172 -168 172 4 0 117 -25 252 -56z m-435 31 c190
-50 441 -242 572 -437 73 -110 95 -173 101 -291 7 -157 -29 -277 -87 -285 -22
-3 -23 -1 -19 35 3 21 11 59 18 84 28 97 -32 287 -141 444 -61 89 -203 226
-283 274 -219 131 -414 108 -522 -61 -22 -35 -26 -36 -53 -27 -47 16 -56 33
-43 77 24 79 120 157 231 188 64 17 156 17 226 -1z m3025 -5 c-13 -25 -111
-106 -193 -161 -34 -23 -123 -86 -197 -139 -452 -323 -875 -607 -1000 -670
-87 -44 -100 -46 -100 -17 0 18 7 27 23 31 58 14 479 286 737 476 80 59 251
178 380 266 380 258 371 252 350 214z m158 -25 c35 -10 65 -22 68 -27 13 -21
-129 -128 -331 -248 -49 -30 -148 -93 -220 -140 -71 -48 -204 -129 -295 -182
-91 -52 -259 -150 -375 -218 -221 -129 -431 -237 -441 -227 -17 17 35 58 150
122 70 39 164 96 209 127 45 31 150 103 232 159 310 212 636 442 775 548 80
61 150 109 156 107 5 -2 38 -12 72 -21z m-7027 -19 c60 -33 253 -112 312 -126
57 -15 62 -21 43 -58 -34 -66 -156 -155 -361 -262 -66 -35 -176 -96 -245 -135
-69 -40 -190 -107 -270 -150 -188 -101 -530 -298 -600 -345 -30 -20 -98 -62
-151 -92 -52 -31 -198 -130 -325 -220 -126 -91 -255 -182 -286 -203 -95 -62
-78 -87 92 -135 63 -17 205 -58 315 -90 110 -32 249 -70 309 -85 60 -15 227
-67 370 -115 296 -100 941 -311 1059 -346 44 -13 181 -59 305 -103 265 -93
378 -128 431 -137 37 -6 42 -3 297 202 517 415 1161 868 1630 1147 227 135
374 259 389 327 9 39 11 39 247 -10 482 -101 912 -171 1075 -173 57 -1 93 -6
93 -12 0 -6 -12 -55 -26 -110 -29 -113 -28 -132 17 -320 46 -197 82 -526 83
-760 1 -142 -3 -209 -12 -230 -14 -32 -169 -138 -204 -139 -14 -1 -26 17 -46
64 -61 143 -162 263 -259 307 -75 35 -197 42 -297 19 -167 -39 -362 -159 -521
-320 -222 -223 -410 -529 -584 -951 -39 -93 -79 -181 -89 -195 -35 -48 -856
-446 -1102 -535 -89 -32 -114 -30 -255 18 -113 38 -185 73 -185 87 0 6 26 57
59 113 32 56 86 152 121 212 69 121 243 377 357 526 136 179 583 599 809 761
54 38 155 117 225 174 302 246 1113 797 1416 961 72 39 101 63 76 63 -60 0
-903 -539 -1253 -800 -225 -169 -567 -439 -730 -578 -194 -166 -582 -557 -673
-678 -162 -216 -368 -562 -422 -706 l-18 -48 -56 0 c-176 0 -922 133 -1816
325 -477 102 -980 250 -1197 352 -307 144 -810 427 -1033 582 -61 42 -157 108
-215 146 -114 76 -250 200 -250 228 0 16 3 16 38 -2 21 -11 116 -78 211 -149
201 -150 449 -307 713 -450 247 -134 585 -302 608 -302 13 0 43 33 88 97 137
194 356 551 369 601 4 16 -1 30 -14 43 -10 11 -201 111 -424 223 -222 112
-471 243 -554 291 -82 49 -181 106 -220 128 -38 22 -122 75 -185 117 -63 42
-136 89 -163 104 -26 15 -47 33 -47 40 0 45 183 245 355 387 183 151 1059 686
1537 937 155 83 327 173 381 202 54 29 100 50 103 47 3 -3 -6 -16 -20 -30 -52
-52 -87 -160 -72 -221 10 -40 26 -31 26 14 0 48 39 98 100 125 l41 19 72 -39
c75 -40 107 -62 107 -76 0 -5 -19 -13 -42 -19 -105 -26 -247 -104 -227 -124 3
-4 59 16 125 43 65 27 165 59 221 71 57 13 118 32 135 43 l33 20 -84 40 c-47
22 -149 66 -228 97 l-144 58 128 68 c70 37 173 91 228 120 55 30 103 54 106
54 4 0 26 -11 50 -24z m8293 10 c73 -31 128 -142 157 -321 17 -104 17 -454 1
-569 -26 -175 -128 -457 -229 -629 -85 -144 -190 -230 -258 -213 -40 10 -94
65 -126 128 -48 95 -60 158 -66 338 -5 148 -2 188 26 390 18 124 39 241 47
260 9 19 38 98 66 175 27 76 62 165 79 198 60 119 159 228 224 246 42 13 42
13 79 -3z m-1891 -46 c11 -10 -72 -80 -95 -80 -19 0 -24 32 -12 78 6 21 10 22
53 16 25 -3 50 -10 54 -14z m-970 -51 c78 -17 143 -32 144 -32 0 -1 13 -141
28 -311 17 -207 23 -312 16 -319 -5 -5 -70 -45 -143 -87 l-132 -78 -54 27 -53
26 -65 -35 c-149 -79 -306 -312 -280 -414 18 -74 335 -167 461 -135 37 9 52
20 73 52 30 45 34 98 18 239 l-8 76 93 54 c52 30 155 89 229 130 276 153 536
308 943 560 232 145 424 257 432 254 42 -16 46 -230 13 -644 l-23 -284 -180
-120 c-99 -67 -355 -242 -569 -391 -458 -318 -1220 -822 -1443 -954 -70 -41
-73 -42 -83 -22 -7 11 -15 131 -21 277 -10 278 -13 310 -60 567 -46 252 -47
284 -8 431 30 115 31 125 16 142 -9 10 -14 27 -11 38 5 17 18 21 108 31 118
12 125 15 311 138 170 112 390 245 405 245 19 0 6 34 -13 38 -10 2 -37 -9 -60
-24 l-42 -27 -172 42 c-94 24 -179 48 -188 55 -22 16 -11 78 19 113 l21 24
160 -42 c261 -67 244 -64 260 -48 13 13 -12 21 -200 68 -180 45 -215 56 -211
70 2 9 10 40 16 69 7 28 13 52 15 52 2 0 85 -20 184 -44 108 -26 180 -39 178
-32 -6 21 -74 46 -202 76 -70 16 -129 31 -132 34 -3 2 0 28 6 57 11 51 34 89
53 89 5 0 73 -14 151 -31z m-3207 -6 c-12 -52 -65 -148 -99 -181 l-34 -33 -42
17 c-48 19 -50 29 -19 109 22 59 42 75 123 101 66 21 78 18 71 -13z m659 17
c3 -5 -3 -10 -14 -10 -12 0 -21 5 -21 10 0 6 6 10 14 10 8 0 18 -4 21 -10z
m95 -64 c311 -69 478 -113 855 -221 160 -46 306 -86 325 -90 33 -6 36 -10 68
-95 19 -49 38 -106 42 -126 8 -34 1 -132 -16 -233 l-5 -33 -72 7 c-172 16
-726 126 -888 176 l-74 23 40 7 c84 16 143 8 380 -51 279 -69 427 -96 456 -84
20 9 -26 21 -379 100 -66 15 -76 20 -97 54 -22 34 -30 39 -92 51 -82 16 -188
17 -434 5 -142 -7 -191 -6 -208 4 -13 7 -49 14 -80 16 -31 2 -193 37 -361 78
-168 41 -326 77 -352 81 -61 8 -81 36 -46 64 13 11 100 80 193 155 226 181
220 178 370 173 99 -3 164 -14 375 -61z m861 49 c23 -9 62 -25 86 -37 l43 -22
0 -67 c0 -37 -5 -80 -10 -95 -10 -25 -13 -26 -58 -21 -26 3 -118 27 -206 52
-87 25 -165 45 -172 45 -20 0 -17 27 6 64 19 32 78 71 128 86 45 14 137 11
183 -5z m1949 -71 c48 -9 93 -20 100 -24 10 -6 10 -25 0 -94 -14 -97 -2 -91
-117 -60 -75 21 -83 32 -83 120 0 41 3 74 6 74 3 0 45 -7 94 -16z m-5230 -39
c153 -46 1638 -414 1855 -460 235 -50 792 -189 838 -208 33 -14 37 -20 32 -39
-21 -72 -128 -171 -256 -238 -43 -22 -142 -84 -221 -137 -79 -53 -291 -196
-473 -317 -373 -250 -683 -474 -949 -686 -280 -223 -357 -280 -379 -280 -24 0
-330 98 -1107 355 -576 191 -893 289 -1308 406 -336 95 -472 143 -472 169 0 5
71 57 158 116 86 59 229 157 317 219 88 62 230 153 315 202 85 50 219 129 297
176 208 126 394 227 698 380 309 156 386 208 460 315 34 48 55 69 65 66 8 -3
67 -21 130 -39z m3517 -15 c28 -22 58 -51 67 -65 l16 -25 -37 0 c-21 0 -57 9
-80 20 -40 18 -43 22 -43 58 0 65 10 66 77 12z m333 22 c51 -13 66 -21 68 -37
3 -22 -34 -115 -46 -115 -7 1 -124 146 -130 162 -5 12 34 8 108 -10z m-3040
-73 c0 -15 -5 -19 -17 -15 -10 3 -31 8 -48 12 l-30 8 25 7 c49 14 70 10 70
-12z m89 -102 c1 -12 -5 -17 -16 -15 -15 3 -18 15 -20 73 l-1 70 18 -55 c10
-30 19 -63 19 -73z m-1939 82 c0 -9 -81 -41 -88 -34 -8 7 29 46 53 55 18 7 34
-3 35 -21z m2235 -5 c154 -21 282 -39 284 -40 2 -2 -14 -26 -35 -54 -38 -50
-40 -51 -79 -44 -22 4 -107 27 -190 51 -83 25 -173 45 -202 46 -45 1 -53 4
-57 23 -3 12 -9 29 -12 38 -3 9 -2 16 2 16 5 0 135 -16 289 -36z m-2114 -30
c30 -15 54 -42 46 -50 -10 -10 -97 37 -108 58 -10 18 -8 19 13 13 12 -4 35
-13 49 -21z m5005 -21 c-7 -21 -25 -86 -41 -145 -21 -80 -31 -105 -42 -101
-18 7 -43 56 -43 86 0 24 115 197 131 197 4 0 2 -17 -5 -37z m-526 3 l95 -17
47 -72 c45 -67 46 -72 26 -75 -14 -3 -34 9 -61 37 -32 33 -55 46 -123 67 -53
16 -88 32 -94 44 -14 26 -13 43 3 37 6 -2 55 -12 107 -21z m-4322 -46 c37 -23
41 -36 12 -45 -32 -10 -90 32 -75 55 9 15 26 12 63 -10z m2295 -118 c313 -75
569 -141 570 -147 6 -32 -114 -13 -508 81 -452 108 -478 115 -552 146 -62 26
-112 59 -87 58 5 -1 265 -62 577 -138z m3693 127 c24 -6 44 -15 44 -20 0 -14
-65 -58 -91 -61 -22 -3 -24 1 -27 45 -3 53 -1 55 74 36z m-1441 -199 c9 -10
20 -40 22 -65 5 -42 4 -45 -18 -45 -36 0 -43 10 -61 73 l-15 57 27 0 c15 0 35
-9 45 -20z m895 -38 c139 -34 155 -40 158 -60 2 -12 -2 -22 -8 -22 -6 0 -42
-20 -79 -44 -111 -72 -104 -70 -160 -41 -28 14 -63 25 -79 25 -47 0 -66 21
-60 67 6 41 46 113 63 113 6 -1 80 -17 165 -38z m2430 -89 c0 -40 -21 -143
-36 -183 -8 -19 -23 -70 -34 -113 -12 -45 -48 -130 -87 -205 -139 -266 -200
-331 -505 -540 -81 -56 -270 -191 -420 -300 -150 -109 -316 -227 -368 -262
-52 -35 -360 -253 -685 -485 -598 -428 -913 -646 -1017 -705 l-58 -32 0 141
c0 130 1 141 18 141 20 0 20 3 63 387 l12 103 94 60 c52 33 99 58 105 54 23
-14 -14 -250 -77 -484 -26 -99 -32 -165 -15 -175 11 -7 115 62 575 379 504
346 879 610 1023 720 74 55 206 154 295 218 189 136 302 237 359 321 73 107
107 197 213 557 l22 75 99 71 c55 39 168 121 253 182 85 61 158 109 163 106 4
-3 8 -17 8 -31z m-3282 -35 c19 -19 14 -63 -15 -138 -27 -69 -41 -82 -60 -57
-13 17 0 172 16 191 16 19 42 21 59 4z m923 -204 c58 -55 99 -188 99 -320 0
-77 -3 -95 -21 -118 -20 -25 -25 -26 -117 -26 -53 0 -126 7 -161 15 -68 16
-180 71 -188 92 -7 18 91 200 151 279 84 113 171 141 237 78z m1758 -221 c-33
-182 -174 -467 -305 -613 -25 -27 -134 -114 -242 -192 -108 -78 -274 -199
-369 -270 -368 -272 -1214 -858 -1374 -951 -25 -15 -51 -27 -57 -27 -20 0 -14
50 38 316 28 141 50 264 50 274 0 9 10 26 23 37 40 37 252 180 676 456 229
148 549 360 711 472 549 376 834 560 850 550 4 -3 4 -26 -1 -52z m501 -110 c0
-44 23 -179 45 -267 21 -82 74 -191 118 -244 21 -24 37 -46 37 -49 0 -11 -195
6 -315 26 -143 25 -198 44 -225 78 -28 36 -27 89 2 99 59 18 267 272 299 363
16 44 39 41 39 -6z m-10441 -635 c47 -28 88 -53 90 -54 2 -2 -2 -10 -9 -19 -9
-10 -11 -41 -8 -104 3 -75 9 -99 36 -154 45 -90 83 -119 217 -163 189 -62 209
-82 203 -204 -3 -70 -1 -80 14 -80 9 0 19 8 22 18 9 32 -28 405 -41 410 -9 2
-13 -10 -13 -42 0 -53 -3 -54 -81 -27 -102 35 -158 63 -174 88 -15 22 -48 173
-40 182 5 4 185 -91 460 -244 121 -67 319 -172 440 -233 220 -111 383 -203
396 -224 4 -6 -22 -54 -56 -107 -35 -53 -69 -108 -75 -123 -12 -26 -13 -26
-55 -11 -85 29 -91 41 -100 201 -6 130 -8 142 -26 142 -16 0 -19 -7 -19 -44 0
-25 5 -48 11 -52 8 -5 10 -39 6 -111 l-5 -104 70 -35 69 -35 -22 -37 c-12 -20
-62 -106 -111 -189 -50 -84 -96 -153 -104 -153 -43 0 -271 112 -632 312 -293
162 -272 148 -542 333 -188 129 -322 241 -347 290 -10 19 53 139 318 608 5 9
12 17 15 17 4 0 45 -23 93 -52z m147 -84 c19 -5 22 -15 27 -87 12 -152 73
-228 224 -277 38 -12 79 -33 93 -46 24 -24 24 -24 3 -24 -37 0 -173 47 -253
87 l-74 38 -24 75 c-25 76 -42 240 -26 240 5 0 18 -3 30 -6z m6984 -356 c98
-48 154 -107 211 -223 l51 -103 -17 -93 c-9 -52 -18 -143 -20 -202 -2 -83 -7
-114 -21 -135 l-18 -27 -12 75 c-30 180 -195 412 -324 456 -77 27 -204 24
-290 -5 -252 -86 -484 -362 -678 -806 -112 -256 -202 -648 -202 -880 0 -158
21 -429 37 -465 8 -19 29 -73 45 -120 38 -110 68 -159 140 -237 87 -94 81 -96
-117 -41 -128 35 -446 151 -491 179 -57 35 -106 124 -125 226 l-10 55 79 161
c44 89 99 207 122 262 23 55 93 201 156 325 62 124 145 306 183 405 122 317
150 374 282 572 206 307 353 459 552 568 118 65 197 86 312 82 85 -2 108 -6
155 -29z m-7523 -346 c171 -140 427 -321 646 -456 96 -59 210 -120 643 -341
238 -121 804 -293 1387 -420 350 -76 803 -163 1063 -204 138 -22 282 -47 320
-56 38 -9 137 -23 219 -31 173 -17 145 -11 347 -76 139 -46 156 -53 148 -69
-19 -34 -59 -31 -211 15 -87 27 -194 51 -265 61 -193 25 -989 172 -1254 230
-135 30 -297 64 -360 76 -172 32 -496 112 -660 164 -80 25 -210 64 -290 87
-210 59 -271 83 -547 221 -224 112 -469 251 -761 429 -107 65 -564 401 -570
419 -6 16 7 39 22 39 8 0 63 -40 123 -88z m7343 62 c78 -23 172 -120 228 -234
45 -90 85 -232 80 -277 -3 -25 -8 -19 -45 48 -72 130 -119 173 -229 205 -147
42 -328 -28 -476 -185 -87 -91 -199 -260 -264 -395 -120 -249 -224 -648 -224
-853 0 -32 9 -121 20 -198 11 -77 20 -152 20 -168 0 -48 125 -293 175 -342 66
-67 192 -94 298 -64 74 20 56 -16 -27 -55 -107 -50 -278 -71 -334 -42 -35 19
-131 118 -169 176 -46 68 -79 139 -94 200 -7 30 -17 61 -22 68 -5 6 -18 119
-29 250 -23 278 -17 370 38 593 107 436 261 769 474 1025 175 208 396 303 580
248z m-7295 -209 c212 -158 210 -157 530 -356 289 -179 369 -226 526 -304 292
-147 560 -243 949 -340 641 -160 1041 -248 1690 -369 458 -86 848 -164 863
-173 40 -25 -215 -123 -322 -123 -32 0 -107 9 -167 20 -60 10 -149 24 -199 30
-222 27 -1116 212 -1595 330 -253 63 -765 210 -889 256 -231 86 -905 454
-1156 630 -178 126 -450 341 -472 373 -27 40 -30 98 -8 141 15 30 33 41 50 32
6 -4 96 -70 200 -147z m7368 -98 c51 -30 125 -117 156 -183 11 -23 32 -86 47
-140 22 -83 28 -126 31 -260 3 -95 0 -191 -6 -235 -19 -121 -69 -310 -132
-500 -113 -341 -184 -472 -344 -634 -127 -128 -199 -167 -318 -173 -103 -5
-149 12 -217 84 -122 129 -201 410 -186 664 16 282 80 532 206 805 126 275
301 484 484 579 47 25 59 27 141 24 78 -3 98 -8 138 -31z m-7505 -70 c26 -24
75 -63 110 -86 35 -24 62 -45 59 -47 -7 -8 -192 84 -209 103 -22 24 -34 73
-19 73 7 0 33 -20 59 -43z m715 -483 c36 -24 77 -87 64 -100 -14 -14 -97 54
-148 120 -13 18 -12 19 16 12 17 -4 47 -18 68 -32z m279 -165 c420 -227 686
-330 1049 -408 76 -16 155 -39 177 -50 68 -34 72 -47 72 -206 0 -145 -5 -165
-41 -165 -17 0 -554 150 -704 197 -117 36 -526 253 -657 348 -43 32 -47 38
-53 90 -16 121 3 255 36 255 4 0 59 -27 121 -61z m5098 -231 c-84 -189 -382
-804 -392 -810 -30 -16 -431 -129 -526 -148 -74 -15 -174 -23 -370 -31 l-267
-10 -240 31 c-274 35 -702 104 -758 122 -56 17 -103 63 -205 200 -50 67 -107
133 -126 146 -22 15 -122 45 -286 87 -138 35 -255 67 -258 70 -4 4 2 5 13 2
11 -4 198 -40 415 -82 217 -42 405 -81 418 -86 12 -4 22 -17 22 -26 0 -34 48
-120 78 -142 19 -13 102 -40 204 -66 95 -25 227 -62 293 -82 111 -34 129 -37
250 -37 146 -1 202 13 346 85 102 51 105 55 90 133 -16 82 -9 112 32 120 94
19 410 156 937 406 184 87 338 159 342 159 4 1 -2 -18 -12 -41z m-3490 -371
c91 -25 217 -57 282 -71 195 -43 318 -88 318 -116 0 -5 -17 -4 -37 2 -194 54
-763 194 -763 187 0 -24 120 -66 335 -119 88 -22 215 -55 283 -74 67 -19 148
-37 179 -39 48 -3 61 -9 77 -30 11 -15 17 -29 14 -32 -3 -3 -200 46 -438 110
-237 63 -434 115 -437 115 -3 0 0 -7 8 -16 30 -36 60 -45 529 -166 107 -27
224 -56 260 -64 75 -16 140 -43 140 -57 0 -16 -62 -2 -494 109 -289 75 -411
103 -419 95 -6 -6 -9 -13 -6 -15 12 -12 931 -246 967 -246 12 0 22 -4 22 -10
0 -5 -5 -10 -10 -10 -6 0 -140 32 -298 70 -158 39 -389 96 -514 126 l-228 56
0 128 0 128 33 -8 c17 -5 106 -29 197 -53z m1110 -172 c30 -7 73 -16 95 -19
22 -4 64 -11 93 -17 l52 -10 0 -44 c0 -24 -5 -56 -10 -70 -10 -26 -12 -26 -68
-20 -75 9 -251 70 -279 97 -28 27 -31 82 -5 97 17 10 23 9 122 -14z m1031 -41
c7 -9 13 -39 14 -67 0 -48 -2 -52 -42 -83 -49 -37 -169 -80 -266 -93 -131 -18
-371 25 -441 80 -22 17 -26 28 -26 69 0 81 6 82 224 46 208 -34 213 -34 396
32 97 36 122 38 141 16z"/>
<path d="M10590 7481 c-171 -37 -264 -67 -296 -94 l-27 -23 26 -65 c96 -243
227 -931 227 -1195 0 -89 15 -98 85 -49 63 43 109 107 130 180 8 27 21 124 30
215 8 91 20 217 26 280 17 173 0 648 -27 757 -8 29 -16 29 -174 -6z m144 -33
c32 -151 39 -242 33 -468 -4 -150 -13 -286 -25 -375 -11 -77 -23 -183 -27
-235 -9 -133 -28 -195 -76 -243 -21 -21 -44 -37 -51 -35 -7 3 -14 23 -16 46
-3 42 -3 42 27 36 24 -5 31 -3 31 10 0 11 -9 16 -30 16 -16 0 -30 1 -31 3 0 1
-24 149 -53 330 -52 325 -52 327 -31 327 12 0 66 -7 120 -15 54 -8 101 -12
104 -10 3 3 -3 13 -12 22 -11 11 -51 21 -123 29 -59 7 -111 17 -115 21 -10 11
-139 456 -134 462 3 2 44 15 92 27 49 13 129 35 178 48 115 32 133 32 139 4z"/>
<path d="M10450 7052 c0 -12 13 -15 148 -36 76 -12 82 -11 82 5 0 17 -4 18
-167 35 -43 4 -63 3 -63 -4z"/>
<path d="M10461 6986 c-14 -17 -22 -14 122 -45 91 -20 129 -18 121 4 -8 19
-30 26 -114 36 -41 4 -84 11 -96 14 -12 4 -25 0 -33 -9z"/>
<path d="M10527 6746 c-8 -21 0 -23 88 -29 l70 -5 -24 19 c-13 10 -33 19 -46
19 -12 0 -36 3 -52 6 -22 4 -32 2 -36 -10z"/>
<path d="M10560 6567 c0 -14 46 -27 100 -27 42 0 2 27 -52 35 -39 6 -48 4 -48
-8z"/>
<path d="M10583 6382 c-3 -8 0 -18 8 -23 17 -11 79 -12 79 -1 -1 29 -77 51
-87 24z"/>
<path d="M10869 7383 c-7 -18 -7 -101 -1 -250 10 -258 12 -263 91 -263 74 0
73 -4 69 186 -3 169 -3 169 -36 234 -36 69 -77 120 -99 120 -7 0 -18 -12 -24
-27z m73 -134 c25 -50 38 -128 38 -228 0 -97 -7 -116 -39 -106 -20 6 -21 13
-22 118 0 62 -4 145 -8 185 -8 80 2 90 31 31z"/>
<path d="M10883 6812 c-6 -11 -13 -77 -14 -161 -4 -161 -4 -161 72 -161 72 0
76 7 88 155 l11 130 -30 28 c-37 34 -108 39 -127 9z m87 -152 l0 -130 -34 0
c-40 0 -46 13 -34 75 4 22 7 64 8 93 0 63 13 92 40 92 19 0 20 -7 20 -130z"/>
<path d="M10856 6421 c-19 -21 -45 -163 -46 -252 0 -35 1 -36 54 -49 30 -7 61
-10 70 -7 19 7 50 108 66 211 14 95 9 102 -70 112 -48 5 -57 3 -74 -15z m91
-57 c2 -16 -7 -72 -20 -124 -22 -90 -24 -95 -47 -92 -14 2 -29 7 -33 12 -15
13 21 221 40 235 26 19 58 3 60 -31z"/>
<path d="M11245 6840 c-15 -16 -17 -32 -13 -89 12 -167 139 -291 208 -203 19
23 21 36 17 83 -13 143 -150 278 -212 209z m100 -34 c56 -56 97 -184 75 -237
-23 -55 -81 -25 -125 64 -63 130 -28 251 50 173z"/>
<path d="M9440 6926 c-14 -17 -58 -9 400 -81 190 -30 356 -57 370 -61 l25 -5
-20 20 c-17 17 -64 28 -278 61 -142 22 -299 49 -350 60 -109 24 -131 25 -147
6z"/>
<path d="M6600 4489 c-30 -73 -57 -137 -59 -143 -1 -6 28 22 66 62 63 66 72
72 109 72 22 0 83 -11 135 -25 51 -14 124 -33 162 -41 37 -9 67 -19 67 -23 0
-4 -70 -24 -155 -45 -97 -24 -155 -43 -155 -51 0 -15 45 -8 200 28 58 14 152
28 210 32 75 4 125 13 175 32 39 14 91 33 117 42 100 34 80 41 -380 119 -235
40 -429 72 -432 72 -3 0 -30 -59 -60 -131z m271 58 c100 -25 194 -65 190 -82
-1 -6 -33 -10 -75 -9 -117 2 -217 42 -250 102 -11 18 25 15 135 -11z m-179
-12 c-3 -16 -11 -25 -23 -25 -11 0 -19 4 -19 9 0 22 14 41 30 41 13 0 16 -6
12 -25z m628 -56 c36 -5 76 -17 90 -26 l24 -16 -54 -19 c-48 -17 -65 -18 -135
-8 -44 5 -91 11 -105 13 -20 2 -26 8 -28 35 l-3 32 73 0 c40 0 102 -5 138 -11z"/>
<path d="M2335 3028 c-46 -53 -265 -381 -364 -545 -61 -101 -72 -125 -61 -137
79 -97 1551 -433 2491 -570 240 -35 259 -35 297 9 57 64 153 247 139 262 -2 2
-48 -59 -101 -136 l-98 -139 -31 9 c-18 5 -232 41 -477 79 -503 79 -641 104
-890 161 -96 21 -254 56 -350 78 -226 50 -733 182 -830 216 -41 15 -83 29 -93
32 -10 3 -16 11 -13 18 12 32 218 355 227 355 5 0 9 6 9 14 0 26 17 26 71 2
70 -30 118 -39 135 -25 21 17 20 279 -1 279 -26 0 -33 -32 -27 -137 l5 -103
-25 0 c-30 0 -116 28 -124 41 -4 7 129 210 165 251 3 4 36 -3 72 -17 36 -13
153 -42 260 -65 106 -23 264 -59 349 -80 85 -21 229 -53 320 -70 91 -17 287
-58 435 -90 324 -70 393 -83 595 -110 373 -50 690 -114 690 -139 0 -4 -59 -94
-131 -200 -120 -178 -143 -221 -103 -196 20 13 283 396 284 413 0 29 -52 41
-430 102 -335 54 -802 140 -975 180 -93 21 -269 57 -390 80 -121 23 -379 81
-573 131 -194 49 -368 89 -387 89 -27 0 -40 -8 -70 -42z"/>
<path d="M2500 2918 c0 -72 23 -255 33 -264 31 -30 386 -163 478 -179 31 -6
36 -4 47 20 16 35 15 82 -3 141 -12 40 -13 58 -3 96 9 36 9 53 0 73 -19 41
-32 29 -32 -29 0 -35 -5 -56 -12 -58 -10 -4 -8 -25 8 -91 32 -131 33 -130
-156 -68 -85 28 -159 51 -164 51 -6 0 -34 11 -63 24 -70 33 -83 60 -83 178 -1
61 -5 99 -14 111 -18 24 -36 21 -36 -5z"/>
<path d="M3133 2638 c3 -105 10 -179 20 -208 14 -43 15 -37 16 151 1 191 -3
219 -32 219 -6 0 -7 -65 -4 -162z"/>
<path d="M3340 2686 c0 -105 2 -118 28 -167 43 -82 104 -119 292 -179 209 -66
253 -75 301 -61 62 19 69 37 69 183 0 122 -14 208 -34 208 -4 0 -5 -17 -1 -37
10 -57 17 -212 11 -239 -11 -43 -96 -32 -333 45 -151 49 -194 101 -208 254 -4
42 -11 77 -16 77 -5 0 -9 -34 -9 -76 0 -66 5 -86 32 -143 18 -36 39 -71 48
-78 31 -25 188 -82 309 -112 69 -17 127 -33 129 -36 11 -11 -33 -17 -81 -12
-52 5 -261 76 -370 125 -68 31 -121 85 -136 139 -6 21 -11 80 -11 131 0 54 -4
92 -10 92 -6 0 -10 -45 -10 -114z"/>
<path d="M3255 2606 c3 -93 7 -172 10 -175 32 -31 33 243 2 309 -17 34 -17 29
-12 -134z"/>
<path d="M2190 2702 c0 -26 190 -105 208 -87 11 10 -38 43 -98 66 -72 27 -110
34 -110 21z"/>
<path d="M2444 2640 l-7 -41 -201 -98 c-110 -53 -207 -105 -215 -114 -7 -9
-11 -17 -9 -17 12 0 144 58 293 129 l167 79 61 -18 c34 -9 145 -50 247 -90
321 -125 341 -132 356 -119 23 19 16 26 -48 44 -50 13 -440 155 -570 206 -14
6 -32 24 -38 40 -19 44 -29 44 -36 -1z"/>
<path d="M4131 2603 c-5 -21 -9 -118 -8 -215 2 -153 5 -180 20 -195 16 -16 17
-5 17 215 0 228 -7 277 -29 195z"/>
<path d="M4280 2435 c0 -152 0 -155 -24 -170 -13 -9 -27 -23 -30 -31 -9 -24
22 -16 56 15 29 26 32 33 32 87 0 92 -16 254 -26 254 -4 0 -8 -70 -8 -155z"/>
<path d="M4384 2565 c-12 -30 3 -150 23 -196 25 -57 83 -122 126 -142 49 -24
269 -88 286 -85 29 6 -32 37 -120 62 -216 59 -289 133 -289 293 0 69 -13 103
-26 68z"/>
<path d="M4498 2544 c-14 -13 -9 -130 7 -167 27 -64 65 -86 273 -158 91 -31
102 -34 102 -20 0 14 -72 45 -183 81 -145 47 -173 79 -186 213 -3 33 -9 55
-13 51z"/>
<path d="M3282 2393 c2 -13 94 -45 403 -140 220 -67 406 -122 413 -123 8 0 12
5 10 12 -3 9 -801 268 -826 268 -2 0 -2 -8 0 -17z"/>
<path d="M4335 2210 c-3 -5 -5 -10 -2 -10 2 0 108 -36 236 -80 133 -46 231
-75 229 -68 -8 24 -67 55 -135 72 -37 10 -108 32 -158 50 -105 39 -161 51
-170 36z"/>
<path d="M11713 5651 c-106 -49 -230 -247 -268 -430 -8 -36 -19 -84 -24 -106
-11 -44 -31 -289 -31 -376 0 -30 7 -104 15 -164 23 -165 65 -223 165 -233 40
-4 57 0 94 22 81 47 163 196 229 416 61 202 72 276 72 470 0 155 -3 184 -23
248 -27 86 -76 147 -130 162 -48 13 -50 13 -99 -9z m118 -47 c88 -45 127 -328
80 -574 -11 -58 -23 -125 -26 -150 -9 -58 -126 -349 -166 -412 -46 -71 -72
-88 -134 -88 -73 0 -90 22 -29 38 96 26 163 94 228 233 82 173 120 387 114
628 -5 169 -10 188 -74 288 -18 29 -31 53 -28 53 3 0 19 -7 35 -16z m-62 -33
c31 -16 39 -27 44 -58 5 -30 2 -42 -15 -60 l-21 -23 -69 37 c-78 42 -84 59
-35 97 39 31 47 32 96 7z m-108 -111 c20 0 26 -31 13 -64 -11 -29 -104 -12
-104 18 0 21 41 58 58 51 7 -3 22 -5 33 -5z m199 -106 c11 -48 -5 -337 -25
-440 -13 -71 -41 -141 -52 -131 -3 3 0 43 6 88 18 134 22 124 -74 171 -83 41
-85 43 -85 78 0 44 15 60 54 60 44 0 103 18 122 37 14 14 16 30 11 87 -9 106
22 142 43 50z m-94 11 c19 -46 19 -105 -1 -105 -9 0 -15 9 -15 24 0 13 -9 35
-20 49 -29 36 -26 67 7 67 8 0 21 -16 29 -35z m-101 -21 c12 -5 35 -47 35 -64
0 -6 -9 -10 -19 -10 -11 0 -36 -20 -57 -45 -32 -40 -41 -45 -76 -45 -46 0 -47
-16 -2 -40 24 -14 30 -24 32 -58 6 -86 -32 -162 -83 -162 -27 0 -32 -9 -13
-28 17 -17 44 -15 74 5 25 16 26 15 65 -23 39 -38 40 -41 34 -87 -9 -73 13
-56 46 34 29 77 36 133 19 144 -5 3 -15 -14 -22 -39 -7 -26 -17 -46 -23 -46
-6 0 -26 15 -43 33 -28 28 -31 38 -26 66 10 51 40 58 103 27 34 -18 51 -33 51
-45 0 -36 -61 -226 -84 -261 -13 -20 -44 -46 -70 -59 -25 -13 -46 -27 -46 -30
0 -3 23 -4 50 -3 49 4 52 6 90 62 22 32 45 62 52 66 33 20 -36 -154 -88 -222
-48 -63 -119 -82 -165 -45 -19 15 -27 38 -40 110 l-16 91 43 -24 c44 -25 54
-24 54 4 0 23 -30 49 -67 56 -31 6 -31 7 -38 83 -8 95 8 235 38 337 13 44 34
114 47 157 l24 79 54 -7 c30 -4 61 -9 67 -11z"/>
<path d="M11480 4761 c0 -14 47 -37 93 -44 31 -5 37 -3 37 13 0 12 -9 20 -27
24 -83 16 -103 18 -103 7z"/>
<path d="M4335 5144 c-138 -73 -267 -148 -427 -250 -97 -62 -223 -137 -280
-167 -144 -75 -786 -489 -804 -519 -18 -29 68 -62 351 -136 105 -28 315 -88
468 -135 243 -75 282 -84 313 -75 31 8 163 92 324 207 157 111 803 528 923
595 229 128 399 250 275 197 -108 -46 -617 -366 -1146 -719 l-383 -256 -57 12
c-31 7 -144 39 -251 72 -193 60 -627 189 -708 210 -24 6 -43 14 -43 18 0 31
524 383 756 508 49 27 168 96 265 154 97 58 229 134 294 170 153 84 272 189
130 114z"/>
<path d="M541 3499 c-113 -55 -207 -101 -209 -104 -14 -14 12 -17 48 -6 75 22
349 161 361 182 6 11 9 22 7 24 -2 1 -95 -42 -207 -96z"/>
<path d="M1256 3538 c-12 -48 -5 -138 23 -253 l28 -120 161 -61 c180 -69 288
-117 314 -141 10 -9 18 -30 18 -47 0 -57 19 -105 48 -120 30 -15 92 -29 92
-20 0 20 -25 43 -63 58 l-43 16 4 169 c5 181 -1 241 -22 241 -21 0 -27 -28
-20 -91 5 -47 4 -60 -9 -64 -15 -7 -306 97 -345 123 -37 24 -54 69 -62 168 -8
95 -13 114 -32 114 -7 0 -9 -35 -6 -102 7 -174 41 -214 234 -276 124 -40 178
-64 190 -83 11 -19 -51 -1 -216 63 -193 75 -206 82 -223 116 -24 47 -47 171
-47 253 0 76 -11 103 -24 57z"/>
<path d="M1262 3108 c5 -13 485 -190 502 -185 14 4 -69 51 -170 95 -186 82
-343 124 -332 90z"/>
<path d="M7392 2675 c-111 -52 -234 -205 -337 -420 -69 -144 -92 -208 -121
-335 -31 -132 -42 -346 -25 -474 25 -189 97 -347 183 -404 36 -23 51 -27 117
-27 58 0 87 5 121 22 66 33 157 109 217 183 102 125 216 387 258 595 77 377 6
773 -154 863 -58 33 -186 31 -259 -3z m242 -25 c67 -33 116 -128 150 -293 23
-110 21 -344 -3 -489 -38 -221 -135 -461 -249 -614 -71 -97 -113 -132 -208
-179 -107 -52 -172 -45 -243 26 -33 33 -88 135 -78 145 2 3 26 -13 52 -36 68
-58 102 -74 163 -73 173 4 361 220 467 537 61 180 69 232 68 432 -1 180 -1
180 -37 283 -41 118 -65 155 -133 201 -44 29 -53 31 -103 26 -30 -3 -71 -8
-90 -12 -31 -6 -33 -5 -22 9 47 56 188 76 266 37z m-284 -85 c0 -11 11 -10 55
6 82 29 137 26 178 -11 31 -27 97 -134 97 -158 0 -5 -16 -21 -34 -36 l-35 -26
-16 34 c-9 19 -32 49 -50 68 -35 35 -164 112 -173 103 -11 -11 32 -57 77 -83
l49 -28 -23 -54 -23 -55 -114 3 c-104 4 -112 2 -97 -12 16 -17 107 -36 175
-36 38 0 42 -3 56 -37 l14 -38 -54 -49 c-29 -27 -69 -62 -88 -77 l-35 -28 -75
40 c-92 48 -148 54 -93 10 l21 -17 -22 -59 c-12 -33 -28 -92 -34 -131 -6 -41
-18 -78 -28 -88 -20 -19 -23 -33 -8 -38 6 -2 3 -41 -7 -101 l-16 -99 -34 4
c-26 3 -33 0 -33 -13 0 -11 11 -19 33 -23 52 -10 77 -39 77 -89 0 -24 -5 -48
-12 -55 -9 -9 -9 -15 0 -24 19 -19 14 -65 -9 -87 l-22 -20 -37 31 c-60 48 -74
116 -67 320 6 184 27 291 97 500 91 274 206 439 260 373 26 -31 31 -13 6 20
l-27 35 28 24 c29 25 43 25 43 1z m234 -237 c23 -45 26 -64 26 -150 0 -91 -1
-98 -20 -98 -26 0 -42 27 -81 139 l-32 93 23 43 c29 54 47 48 84 -27z m126
-24 c9 -26 11 -92 7 -223 -6 -241 -29 -334 -138 -573 -24 -54 -47 -98 -51 -98
-4 0 -21 8 -37 18 l-29 18 59 129 c33 71 58 133 57 137 -6 15 -248 157 -248
144 0 -14 51 -66 66 -66 6 0 18 -6 27 -13 17 -11 17 -15 2 -57 -9 -24 -43 -85
-77 -134 l-61 -90 11 -56 c19 -88 20 -85 -60 -98 -40 -6 -74 -9 -75 -8 -8 8
-31 141 -26 149 3 5 28 7 54 5 65 -7 65 14 0 29 -28 6 -62 20 -76 29 -29 19
-29 14 -7 159 l7 50 59 0 60 0 41 -60 c22 -33 49 -61 58 -63 17 -3 17 -2 3 25
-8 15 -26 43 -40 62 -33 44 -33 59 6 192 29 103 34 113 84 161 29 28 67 60 83
71 37 22 44 13 39 -49 -2 -31 -7 -40 -24 -42 -20 -3 -66 -42 -50 -42 19 0 212
52 219 60 5 4 3 58 -3 119 -12 103 -11 113 5 131 26 29 42 25 55 -16z m-453
-280 c25 -38 22 -111 -8 -170 -19 -40 -29 -50 -54 -52 -39 -5 -55 19 -55 85 0
60 18 111 49 142 28 28 47 26 68 -5z m247 -294 c56 -21 25 -128 -74 -251 -59
-74 -73 -84 -89 -65 -28 33 -17 70 59 198 41 70 76 128 77 128 1 0 13 -4 27
-10z m-39 -352 c11 -28 11 -37 -1 -59 -18 -35 -73 -80 -145 -118 -92 -50 -187
-41 -220 21 -9 17 -6 25 22 54 31 32 36 34 99 32 72 -2 89 5 163 64 27 21 53
38 58 38 6 0 16 -15 24 -32z"/>
<path d="M3020 260 l0 -160 35 0 35 0 0 61 0 60 53 -3 52 -3 9 -57 9 -58 39 0
c35 0 38 2 28 19 -5 11 -10 37 -10 58 0 22 -6 48 -14 58 -12 17 -12 22 5 44
27 34 25 86 -6 116 -23 23 -31 25 -130 25 l-105 0 0 -160z m171 100 c21 -12
25 -50 7 -68 -7 -7 -34 -12 -60 -12 l-48 0 0 45 0 45 41 0 c22 0 49 -5 60 -10z"/>
<path d="M4390 260 l0 -160 30 0 30 0 0 160 0 160 -30 0 -30 0 0 -160z"/>
<path d="M4861 398 c-36 -98 -101 -282 -101 -289 0 -5 15 -9 34 -9 29 0 34 4
42 33 10 32 11 32 72 33 61 1 62 1 73 -33 9 -29 15 -33 45 -33 19 0 34 2 34 5
0 2 -25 74 -56 160 l-57 155 -39 0 c-31 0 -40 -4 -47 -22z m68 -102 c6 -24 13
-51 17 -60 5 -13 -1 -16 -35 -16 -24 0 -41 5 -41 12 0 23 34 117 40 113 4 -3
13 -24 19 -49z"/>
<path d="M5090 260 l0 -160 35 0 35 0 0 160 0 160 -35 0 -35 0 0 -160z"/>
<path d="M5492 393 c3 -24 8 -28 33 -28 25 0 30 4 33 28 3 25 1 27 -33 27 -34
0 -36 -2 -33 -27z"/>
<path d="M6356 411 c-9 -14 -106 -291 -106 -302 0 -5 13 -9 30 -9 24 0 32 6
44 34 14 33 15 33 72 32 56 -1 60 -2 73 -34 12 -27 20 -32 49 -32 28 0 33 3
27 18 -3 9 -29 81 -57 160 l-51 142 -38 0 c-21 0 -40 -4 -43 -9z m60 -113 c9
-29 19 -59 22 -65 3 -9 -9 -13 -41 -13 l-45 0 21 65 c12 36 22 65 23 65 1 0
10 -24 20 -52z"/>
<path d="M8350 260 l0 -160 35 0 35 0 0 160 0 160 -35 0 -35 0 0 -160z"/>
<path d="M8480 390 c0 -27 3 -30 30 -30 27 0 30 3 30 30 0 27 -3 30 -30 30
-27 0 -30 -3 -30 -30z"/>
<path d="M9030 370 c0 -27 -2 -50 -3 -50 -2 0 -18 7 -35 15 -62 32 -122 -11
-130 -94 -6 -65 3 -97 35 -127 31 -29 78 -32 106 -7 15 13 21 15 24 6 3 -7 18
-13 34 -13 l29 0 0 160 0 160 -30 0 c-29 0 -30 -1 -30 -50z m-19 -96 c7 -9 14
-33 14 -54 0 -47 -19 -70 -56 -70 -31 0 -49 27 -49 73 0 54 60 88 91 51z"/>
<path d="M6606 388 c-14 -13 -28 -35 -32 -50 -6 -26 -4 -28 23 -28 20 0 31 7
38 23 13 30 60 35 74 8 15 -26 4 -50 -25 -57 -34 -9 -31 -40 6 -53 24 -8 30
-16 30 -39 0 -16 -7 -35 -14 -42 -22 -17 -60 -8 -71 18 -14 32 -65 32 -65 0 1
-65 97 -101 170 -63 52 27 67 91 31 136 -17 22 -17 27 -5 44 22 30 17 73 -12
100 -37 34 -112 35 -148 3z"/>
<path d="M6918 385 c-10 -13 -30 -25 -45 -27 -20 -2 -28 -9 -28 -23 0 -16 8
-21 38 -23 l37 -3 0 -105 0 -104 30 0 30 0 0 155 c0 154 0 155 -22 155 -13 0
-31 -11 -40 -25z"/>
<path d="M7131 394 c-33 -24 -51 -74 -51 -144 0 -105 38 -160 111 -160 55 0
95 37 109 102 18 85 -6 184 -49 208 -30 15 -94 12 -120 -6z m97 -64 c18 -35
12 -155 -10 -176 -22 -22 -56 -9 -65 24 -12 40 -8 135 6 161 16 29 51 25 69
-9z"/>
<path d="M7518 315 c-34 -53 -58 -101 -58 -117 0 -28 1 -28 65 -28 l65 0 0
-35 c0 -32 2 -35 30 -35 27 0 30 3 30 31 0 22 5 32 20 36 13 3 20 14 20 29 0
17 -6 24 -20 24 -19 0 -20 7 -20 93 l0 92 -37 0 c-35 0 -39 -3 -95 -90z m72
-40 l0 -65 -33 0 c-19 0 -36 3 -39 6 -5 5 62 124 70 124 1 0 2 -29 2 -65z"/>
<path d="M4520 371 c0 -20 -6 -30 -20 -34 -11 -3 -20 -13 -20 -22 0 -9 9 -19
20 -22 18 -5 20 -14 20 -87 0 -44 4 -86 8 -93 7 -11 40 -18 75 -15 24 3 22 38
-3 45 -18 4 -20 14 -20 75 0 61 2 70 20 75 11 3 20 13 20 22 0 9 -9 19 -20 22
-14 4 -20 14 -20 34 0 26 -4 29 -30 29 -26 0 -30 -3 -30 -29z"/>
<path d="M3405 343 c-73 -18 -105 -136 -58 -209 19 -30 66 -48 110 -41 38 6
83 41 83 64 0 18 -45 16 -75 -3 -23 -15 -27 -15 -50 0 -14 9 -25 23 -25 31 0
12 16 15 80 15 l80 0 0 33 c0 49 -32 94 -77 106 -21 6 -40 10 -43 10 -3 -1
-14 -3 -25 -6z m63 -65 c25 -25 13 -38 -33 -38 -30 0 -45 4 -45 13 0 19 21 37
45 37 12 0 26 -5 33 -12z"/>
<path d="M3905 334 c-34 -17 -45 -31 -45 -56 0 -25 45 -23 70 2 24 24 30 24
55 7 26 -20 12 -35 -40 -43 -62 -9 -95 -36 -95 -80 0 -64 72 -97 128 -58 12 8
22 10 22 5 0 -6 15 -11 33 -11 l32 0 -4 97 c-1 54 -7 106 -12 115 -9 16 -66
38 -99 38 -8 0 -28 -7 -45 -16z m95 -142 c0 -27 -34 -54 -62 -50 -31 4 -30 39
2 55 36 18 60 16 60 -5z"/>
<path d="M5320 339 c-13 -6 -28 -15 -32 -22 -5 -8 -8 -6 -8 6 0 12 -8 17 -30
17 l-30 0 0 -170 0 -170 30 0 30 0 0 61 0 60 22 -15 c48 -34 109 -11 134 50
30 73 7 155 -50 179 -20 8 -37 15 -38 14 -2 0 -14 -5 -28 -10z m50 -68 c14
-27 13 -94 -2 -109 -19 -19 -66 -15 -78 7 -15 30 -12 82 7 103 21 24 60 23 73
-1z"/>
<path d="M5955 343 c-100 -25 -111 -203 -14 -243 54 -23 149 13 149 57 0 18
-45 16 -75 -3 -23 -15 -27 -15 -50 0 -14 9 -25 23 -25 31 0 12 16 15 80 15 79
0 80 0 80 25 0 36 -25 92 -47 103 -25 13 -74 21 -98 15z m63 -65 c25 -25 13
-38 -33 -38 -30 0 -45 4 -45 13 0 19 21 37 45 37 12 0 26 -5 33 -12z"/>
<path d="M7913 335 c-45 -19 -66 -65 -61 -133 6 -71 46 -112 108 -112 44 0 93
36 105 78 6 19 3 22 -24 22 -20 0 -34 -7 -41 -20 -12 -22 -49 -27 -68 -8 -7 7
-12 33 -12 58 0 25 5 51 12 58 19 19 56 14 68 -8 7 -13 21 -20 41 -20 27 0 30
3 23 23 -10 32 -25 48 -61 64 -40 16 -49 16 -90 -2z"/>
<path d="M9373 335 c-45 -19 -66 -65 -61 -133 4 -47 10 -60 37 -84 49 -43 121
-37 163 16 25 30 22 36 -17 36 -19 0 -35 -4 -35 -9 0 -13 -33 -19 -56 -10 -12
4 -24 17 -27 28 -5 20 -1 21 74 21 l79 0 0 38 c0 47 -22 80 -66 98 -41 17 -50
17 -91 -1z m87 -64 c15 -30 14 -31 -35 -31 -37 0 -45 3 -45 18 0 25 9 32 41
32 18 0 32 -7 39 -19z"/>
<path d="M9623 336 c-81 -37 -64 -121 30 -141 53 -12 70 -24 56 -41 -17 -20
-53 -17 -74 6 -25 28 -71 24 -67 -5 6 -32 36 -56 80 -62 77 -10 132 21 132 76
0 39 -20 58 -85 77 -63 18 -74 29 -45 44 17 9 27 8 48 -6 36 -24 72 -26 72 -4
0 47 -90 81 -147 56z"/>
<path d="M3590 220 l0 -120 35 0 35 0 0 84 c0 91 10 110 52 104 22 -3 23 -8
26 -96 l3 -92 34 0 35 0 0 91 c0 86 -9 125 -34 141 -16 11 -74 10 -96 -2 -13
-7 -21 -7 -25 0 -3 5 -19 10 -36 10 l-29 0 0 -120z"/>
<path d="M4119 333 c-4 -48 4 -201 12 -214 14 -28 74 -35 106 -14 18 12 28 14
31 7 2 -7 17 -12 33 -12 l29 0 0 120 0 120 -30 0 -30 0 0 -69 c0 -38 -4 -82
-10 -96 -8 -22 -15 -26 -42 -23 l-33 3 -3 93 -3 92 -29 0 c-17 0 -30 -3 -31
-7z"/>
<path d="M5497 333 c-4 -3 -7 -57 -7 -120 l0 -113 35 0 35 0 0 120 0 120 -28
0 c-16 0 -32 -3 -35 -7z"/>
<path d="M5617 333 c-4 -3 -7 -57 -7 -120 l0 -113 35 0 35 0 0 83 c0 88 8 107
47 107 32 0 43 -28 43 -114 l0 -76 30 0 30 0 0 100 c0 87 -3 103 -20 120 -22
22 -78 27 -111 10 -13 -7 -19 -7 -19 0 0 11 -53 14 -63 3z"/>
<path d="M8090 331 c0 -5 18 -62 41 -125 42 -119 44 -144 9 -153 -13 -3 -20
-14 -20 -29 0 -20 5 -24 30 -24 17 0 38 8 48 18 14 14 122 296 122 318 0 3
-14 4 -32 2 -31 -3 -33 -6 -58 -87 l-26 -85 -24 85 c-25 81 -26 84 -58 87 -17
2 -32 -1 -32 -7z"/>
<path d="M8480 220 l0 -120 30 0 30 0 0 120 0 120 -30 0 -30 0 0 -120z"/>
<path d="M8600 220 l0 -120 30 0 30 0 0 78 c0 64 4 82 18 95 10 10 25 17 33
17 30 0 39 -24 39 -107 l0 -83 30 0 30 0 0 103 c0 88 -3 106 -18 120 -22 20
-92 23 -111 5 -11 -10 -14 -10 -18 0 -3 6 -18 12 -34 12 l-29 0 0 -120z"/>
<path d="M9150 220 l0 -120 30 0 30 0 0 74 c0 79 13 106 51 106 14 0 19 7 19
30 0 23 -5 30 -19 30 -10 0 -24 -7 -32 -16 -11 -14 -13 -14 -21 0 -5 9 -20 16
-33 16 l-25 0 0 -120z"/>
</g>
</svg>
